<?xml version="1.0" encoding="utf-8"?>
<!-- Generator: Adobe Illustrator 19.0.0, SVG Export Plug-In . SVG Version: 6.00 Build 0)  -->
<svg version="1.1" id="Layer_1" xmlns="http://www.w3.org/2000/svg" xmlns:xlink="http://www.w3.org/1999/xlink" x="0px" y="0px"
	 viewBox="0 0 148.1 490.8" style="enable-background:new 0 0 148.1 490.8;" xml:space="preserve">
<style type="text/css">
	.st0{fill:#414141;}
</style>
<path id="XMLID_6_" class="st0" d="M137.7,0c6.4-0.6,13.6,7.9,8.9,16.1c-6,10.6-11.7,21.4-17.6,32.1c-13.8,25.4-27.7,50.7-41.6,76.1
	C68.6,159,49.7,193.6,30.8,228.3c-2.6,4.8-5.1,9.7-7.9,14.4c-1.1,1.8-1,3.2,0,5c10.4,18.9,20.7,37.9,31.1,56.9
	c20.6,37.8,41.2,75.5,61.8,113.3c10.1,18.5,20.2,37,30.4,55.5c3.3,6.1,2.3,11.9-2.9,15.5c-5.2,3.5-12.1,1.6-15.5-4.5
	c-4.1-7.2-8-14.6-12-21.8c-16.3-29.9-32.6-59.8-48.9-89.7c-14.2-26-28.3-52.1-42.5-78.1c-7.8-14.4-15.7-28.7-23.6-43
	c-2.4-4.3-2.4-8.5,0-12.8c15.8-28.8,31.5-57.6,47.2-86.4C64.1,122.7,80.3,93,96.5,63.2c10.3-18.9,20.6-37.7,31-56.6
	C129.7,2.6,132.7,0,137.7,0z"/>
</svg>
