<?xml version="1.0" encoding="utf-8"?>
<!-- Generator: Adobe Illustrator 19.0.0, SVG Export Plug-In . SVG Version: 6.00 Build 0)  -->
<svg version="1.1" id="Layer_1" xmlns="http://www.w3.org/2000/svg" xmlns:xlink="http://www.w3.org/1999/xlink" x="0px" y="0px"
	 viewBox="-279.5 406 24.8 29.8" style="enable-background:new -279.5 406 24.8 29.8;" xml:space="preserve">
<style type="text/css">
	.st0{fill:#424242;}
</style>
<g>
	<path class="st0" d="M-279.5,434.1c0.1-0.6,0.6-1,0.9-1.5c2.7-4,5.4-7.9,8.1-11.9c0,0,0-0.1,0-0.1c-1.2-1.7-2.3-3.3-3.5-4.9
		c-1.5-2.1-2.9-4.2-4.4-6.2c-1.1-1.4-0.2-3.3,1.4-3.5c0,0,0,0,0.1,0c0.2,0,0.3,0,0.5,0c0.1,0,0.1,0,0.2,0.1c0.5,0.1,0.9,0.4,1.2,0.8
		c2.6,3.7,5.2,7.3,7.8,11c0.4,0.6,0.5,1.2,0.3,1.9c-0.1,0.5-0.3,0.9-0.6,1.3c-3.2,4.6-6.3,9.2-9.5,13.9c-0.4,0.6-0.9,0.8-1.5,0.7
		c-0.5-0.1-0.8-0.5-1-0.9c0,0,0-0.1,0-0.1C-279.5,434.3-279.5,434.2-279.5,434.1z"/>
	<path class="st0" d="M-257.3,435.8c-0.9-0.2-1.4-0.7-1.9-1.4c0,0,0,0-0.1-0.1c-2.5-3.5-5-7.1-7.5-10.6c-0.6-0.8-0.5-2,0-2.7
		c3.2-4.6,6.4-9.3,9.5-13.9c0.6-0.9,1.9-0.9,2.3,0c0.1,0.1,0.1,0.3,0.2,0.4c0,0.1,0,0.2,0,0.4c-0.1,0.2-0.2,0.4-0.3,0.6
		c-2.4,3.5-4.8,7-7.2,10.5c-0.4,0.6-0.8,1.2-1.2,1.8c0.1,0.1,0.2,0.3,0.3,0.4c1.4,2,2.8,4,4.2,5.9c1.2,1.7,2.5,3.5,3.7,5.2
		c0.8,1.2,0.3,2.8-1.1,3.2c-0.1,0-0.3,0.1-0.4,0.1C-256.9,435.8-257.1,435.8-257.3,435.8z"/>
</g>
</svg>
